# xmcd CD database file
#
# Track frame offsets:
#	150
#	19117
#	38295
#
# Disc length: 875 seconds
#
# Revision: 1
# Processed by: cddbd v1.5.1PL0 Copyright (c) Steve Scherf et al.
# Submitted via: CDex 1.51
#
DISCID=13036903
DTITLE=平原綾香 - 明日
DYEAR=2003
DGENRE=Pop
TTITLE0=明日
TTITLE1=明日 〜Vocal-less Track〜
TTITLE2=Jupiter 〜Vocal-less Track〜
EXTD=YEAR: 2003
EXTT0=
EXTT1=
EXTT2=
PLAYORDER=
